P3
64 48
255
120 193 246 120 193 246 120 193 246 120 193 246 120 193 246 120 193 246 120 193 246 120 193 246 120 193 246 120 193 246 120 193 246 120 193 246 120 193 246 120 193 246 120 193 246 120 193 246 120 193 246 120 193 246 120 193 246 120 193 246 120 193 246 120 193 246 120 193 246 120 193 246 120 193 246 120 193 246 120 193 246 120 193 246 120 193 246 120 193 246 120 193 246 120 193 246 120 193 246 120 193 246 120 193 246 120 193 246 120 193 246 120 193 246 120 193 246 120 193 246 120 193 246 120 193 246 120 193 246 120 193 246 120 193 246 120 193 246 120 193 246 120 193 246 120 193 246 120 193 246 120 193 246 120 193 246 120 193 246 120 193 246 120 193 246 120 193 246 120 193 246 120 193 246 120 193 246 120 193 246 120 193 246 120 193 246 120 193 246 120 193 246 120 193 246 120 193 246 120 193 246 120 193 246 120 193 246 120 193 246 120 193 246 120 193 246 120 193 246 120 193 246 120 193 246 120 193 246 120 193 246 120 193 246 120 193 246 120 193 246 120 193 246 120 193 246 120 193 246 120 193 246 120 193 246 120 193 246 120 193 246 120 193 246 120 193 246 120 193 246 120 193 246 120 193 246 120 193 246 120 193 246 120 193 246 120 193 246 120 193 246 120 193 246 120 193 246 120 193 246 120 193 246 120 193 246 120 193 246 120 193 246 120 193 246 120 193 246 120 193 246 120 193 246 120 193 246 120 193 246 120 193 246 120 193 246 120 193 246 120 193 246 120 193 246 120 193 246 120 193 246 120 193 246 120 193 246 120 193 246 120 193 246 120 193 246 120 193 246 120 193 246 120 193 246 120 193 246 120 193 246 120 193 246 120 193 246 120 193 246 120 193 246 120 193 246 120 193 246 120 193 246 120 193 246 120 193 246 120 193 246 120 193 246 120 193 246 120 193 246 120 193 246 120 193 246 120 193 246 120 193 246 120 193 246 120 193 246 120 193 246 120 193 246 120 193 246 120 193 246 120 193 246 120 193 246 120 193 246 120 193 246 120 193 246 120 193 246 120 193 246 120 193 246 120 193 246 120 193 246 120 193 246 120 193 246 120 193 246 120 193 246 120 193 246 120 193 246 120 193 246 120 193 246 120 193 246 120 193 246 120 193 246 120 193 246 120 193 246 120 193 246 120 193 246 120 193 246 120 193 246 120 193 246 120 193 246 120 193 246 120 193 246 120 193 246 120 193 246 120 193 246 120 193 246 120 193 246 120 193 246 120 193 246 120 193 246 120 193 246 120 193 246 120 193 246 120 193 246 120 193 246 120 193 246 120 193 246 120 193 246 120 193 246 120 193 246 120 193 246 120 193 246 120 193 246 120 193 246 120 193 246 120 193 246 120 193 246 120 193 246 120 193 246 120 193 246 120 193 246 120 193 246 120 193 246 120 193 246 120 193 246 120 193 246 120 193 246 120 193 246 120 193 246 120 193 246 120 193 246 120 193 246 120 193 246 120 193 246 120 193 246 120 193 246 120 193 246 120 193 246 120 193 246 120 193 246 120 193 246 120 193 246 120 193 246 120 193 246 120 193 246 120 193 246 120 193 246 120 193 246 120 193 246 120 193 246 120 193 246 120 193 246 120 193 246 120 193 246 120 193 246 120 193 246 120 193 246 120 193 246 120 193 246 120 193 246 120 193 246 120 193 246 120 193 246 120 193 246 120 193 246 120 193 246 120 193 246 120 193 246 120 193 246 120 193 246 120 193 246 120 193 246 120 193 246 120 193 246 120 193 246 120 193 246 120 193 246 120 193 246 120 193 246 120 193 246 120 193 246 120 193 246 120 193 246 120 193 246 120 193 246 120 193 246 120 193 246 120 193 246 120 193 246 120 193 246 120 193 246 120 193 246 120 193 246 120 193 246 120 193 246 120 193 246 120 193 246 120 193 246 120 193 246 120 193 246 120 193 246 120 193 246 120 193 246 120 193 246 120 193 246 120 193 246 120 193 246 120 193 246 120 193 246 120 193 246 120 193 246 120 193 246 120 193 246 120 193 246 120 193 246 120 193 246 120 193 246 120 193 246 120 193 246 120 193 246 120 193 246 120 193 246 120 193 246 120 193 246 120 193 246 120 193 246 120 193 246 120 193 246 120 193 246 120 193 246 120 193 246 120 193 246 120 193 246 120 193 246 120 193 246 120 193 246 205 9 13 120 193 246 120 193 246 120 193 246 120 193 246 120 193 246 120 193 246 120 193 246 120 193 246 120 193 246 120 193 246 120 193 246 120 193 246 120 193 246 120 193 246 120 193 246 120 193 246 120 193 246 120 193 246 120 193 246 120 193 246 120 193 246 120 193 246 120 193 246 120 193 246 120 193 246 120 193 246 120 193 246 120 193 246 120 193 246 120 193 246 120 193 246 120 193 246 120 193 246 120 193 246 120 193 246 120 193 246 120 193 246 120 193 246 120 193 246 120 193 246 120 193 246 120 193 246 120 193 246 120 193 246 120 193 246 120 193 246 120 193 246 120 193 246 120 193 246 120 193 246 120 193 246 120 193 246 120 193 246 120 193 246 120 193 246 120 193 246 120 193 246 120 193 246 120 193 246 120 193 246 120 193 246 120 193 246 120 193 246 120 193 246 120 193 246 120 193 246 120 193 246 120 193 246 120 193 246 120 193 246 120 193 246 120 193 246 120 193 246 120 193 246 120 193 246 120 193 246 120 193 246 120 193 246 120 193 246 120 193 246 120 193 246 120 193 246 120 193 246 120 193 246 120 193 246 120 193 246 120 193 246 120 193 246 120 193 246 120 193 246 120 193 246 120 193 246 120 193 246 120 193 246 120 193 246 120 193 246 120 193 246 120 193 246 120 193 246 120 193 246 120 193 246 120 193 246 120 193 246 120 193 246 120 193 246 120 193 246 120 193 246 120 193 246 120 193 246 120 193 246 120 193 246 120 193 246 120 193 246 120 193 246 120 193 246 120 193 246 120 193 246 120 193 246 120 193 246 120 193 246 120 193 246 120 193 246 120 193 246 120 193 246 120 193 246 120 193 246 120 193 246 120 193 246 120 193 246 120 193 246 120 193 246 120 193 246 120 193 246 120 193 246 120 193 246 120 193 246 120 193 246 120 193 246 120 193 246 120 193 246 120 193 246 120 193 246 120 193 246 120 193 246 120 193 246 120 193 246 120 193 246 120 193 246 120 193 246 120 193 246 120 193 246 120 193 246 120 193 246 120 193 246 120 193 246 120 193 246 120 193 246 120 193 246 120 193 246 120 193 246 120 193 246 120 193 246 120 193 246 120 193 246 120 193 246 120 193 246 120 193 246 120 193 246 120 193 246 120 193 246 120 193 246 120 193 246 120 193 246 120 193 246 120 193 246 120 193 246 120 193 246 120 193 246 120 193 246 120 193 246 120 193 246 120 193 246 120 193 246 120 193 246 120 193 246 120 193 246 120 193 246 120 193 246 120 193 246 120 193 246 120 193 246 120 193 246 120 193 246 120 193 246 120 193 246 120 193 246 120 193 246 120 193 246 120 193 246 120 193 246 120 193 246 120 193 246 120 193 246 120 193 246 120 193 246 120 193 246 120 193 246 120 193 246 120 193 246 120 193 246 120 193 246 120 193 246 120 193 246 120 193 246 120 193 246 120 193 246 120 193 246 120 193 246 120 193 246 120 193 246 120 193 246 120 193 246 120 193 246 120 193 246 120 193 246 120 193 246 120 193 246 120 193 246 120 193 246 120 193 246 120 193 246 120 193 246 120 193 246 120 193 246 120 193 246 120 193 246 120 193 246 120 193 246 120 193 246 120 193 246 120 193 246 120 193 246 120 193 246 120 193 246 120 193 246 120 193 246 120 193 246 120 193 246 120 193 246 120 193 246 120 193 246 120 193 246 120 193 246 120 193 246 120 193 246 120 193 246 120 193 246 120 193 246 120 193 246 120 193 246 120 193 246 120 193 246 120 193 246 120 193 246 120 193 246 120 193 246 120 193 246 120 193 246 120 193 246 120 193 246 120 193 246 120 193 246 120 193 246 120 193 246 120 193 246 120 193 246 120 193 246 120 193 246 120 193 246 120 193 246 120 193 246 120 193 246 120 193 246 120 193 246 120 193 246 120 193 246 120 193 246 120 193 246 120 193 246 120 193 246 120 193 246 120 193 246 120 193 246 120 193 246 120 193 246 120 193 246 120 193 246 120 193 246 120 193 246 120 193 246 120 193 246 120 193 246 120 193 246 120 193 246 120 193 246 120 193 246 120 193 246 120 193 246 120 193 246 120 193 246 120 193 246 120 193 246 120 193 246 120 193 246 120 193 246 120 193 246 120 193 246 120 193 246 120 193 246 120 193 246 120 193 246 120 193 246 120 193 246 120 193 246 120 193 246 120 193 246 120 193 246 120 193 246 120 193 246 120 193 246 120 193 246 120 193 246 120 193 246 120 193 246 120 193 246 120 193 246 120 193 246 120 193 246 120 193 246 120 193 246 120 193 246 120 193 246 120 193 246 120 193 246 120 193 246 120 193 246 120 193 246 120 193 246 120 193 246 120 193 246 120 193 246 120 193 246 120 193 246 120 193 246 120 193 246 120 193 246 120 193 246 120 193 246 120 193 246 120 193 246 120 193 246 120 193 246 120 193 246 120 193 246 120 193 246 120 193 246 120 193 246 120 193 246 120 193 246 120 193 246 120 193 246 120 193 246 120 193 246 120 193 246 120 193 246 120 193 246 120 193 246 120 193 246 120 193 246 120 193 246 120 193 246 120 193 246 120 193 246 120 193 246 120 193 246 120 193 246 120 193 246 120 193 246 120 193 246 120 193 246 120 193 246 120 193 246 120 193 246 120 193 246 120 193 246 120 193 246 120 193 246 120 193 246 120 193 246 120 193 246 120 193 246 120 193 246 120 193 246 120 193 246 120 193 246 120 193 246 120 193 246 120 193 246 120 193 246 120 193 246 120 193 246 120 193 246 120 193 246 120 193 246 120 193 246 120 193 246 120 193 246 120 193 246 120 193 246 120 193 246 120 193 246 120 193 246 120 193 246 120 193 246 120 193 246 120 193 246 120 193 246 120 193 246 120 193 246 120 193 246 120 193 246 120 193 246 120 193 246 120 193 246 120 193 246 120 193 246 120 193 246 120 193 246 120 193 246 120 193 246 120 193 246 120 193 246 120 193 246 120 193 246 120 193 246 120 193 246 120 193 246 120 193 246 120 193 246 120 193 246 120 193 246 120 193 246 120 193 246 120 193 246 120 193 246 120 193 246 120 193 246 120 193 246 120 193 246 120 193 246 120 193 246 120 193 246 120 193 246 120 193 246 120 193 246 120 193 246 120 193 246 120 193 246 120 193 246 120 193 246 120 193 246 120 193 246 120 193 246 120 193 246 120 193 246 120 193 246 120 193 246 120 193 246 120 193 246 120 193 246 120 193 246 120 193 246 120 193 246 120 193 246 120 193 246 120 193 246 120 193 246 120 193 246 120 193 246 120 193 246 120 193 246 120 193 246 120 193 246 120 193 246 120 193 246 120 193 246 120 193 246 120 193 246 120 193 246 120 193 246 120 193 246 120 193 246 120 193 246 120 193 246 120 193 246 120 193 246 120 193 246 120 193 246 120 193 246 120 193 246 120 193 246 120 193 246 120 193 246 120 193 246 120 193 246 120 193 246 120 193 246 120 193 246 120 193 246 120 193 246 120 193 246 120 193 246 120 193 246 120 193 246 120 193 246 120 193 246 120 193 246 120 193 246 120 193 246 120 193 246 120 193 246 120 193 246 120 193 246 120 193 246 120 193 246 120 193 246 120 193 246 120 193 246 120 193 246 120 193 246 120 193 246 120 193 246 120 193 246 120 193 246 120 193 246 120 193 246 120 193 246 120 193 246 120 193 246 120 193 246 120 193 246 120 193 246 120 193 246 120 193 246 120 193 246 120 193 246 120 193 246 120 193 246 120 193 246 120 193 246 120 193 246 120 193 246 120 193 246 120 193 246 120 193 246 120 193 246 120 193 246 120 193 246 120 193 246 120 193 246 120 193 246 120 193 246 120 193 246 120 193 246 120 193 246 120 193 246 120 193 246 120 193 246 120 193 246 120 193 246 120 193 246 120 193 246 120 193 246 120 193 246 120 193 246 120 193 246 242 248 22 120 193 246 120 193 246 120 193 246 120 193 246 120 193 246 120 193 246 120 193 246 120 193 246 120 193 246 120 193 246 120 193 246 120 193 246 120 193 246 120 193 246 120 193 246 120 193 246 120 193 246 120 193 246 120 193 246 120 193 246 120 193 246 120 193 246 120 193 246 120 193 246 120 193 246 120 193 246 120 193 246 120 193 246 120 193 246 120 193 246 120 193 246 120 193 246 120 193 246 120 193 246 120 193 246 120 193 246 120 193 246 120 193 246 120 193 246 120 193 246 120 193 246 120 193 246 120 193 246 120 193 246 120 193 246 120 193 246 120 193 246 120 193 246 120 193 246 120 193 246 120 193 246 120 193 246 120 193 246 120 193 246 120 193 246 120 193 246 120 193 246 120 193 246 120 193 246 120 193 246 120 193 246 120 193 246 120 193 246 120 193 246 120 193 246 120 193 246 120 193 246 120 193 246 120 193 246 120 193 246 120 193 246 120 193 246 120 193 246 120 193 246 120 193 246 120 193 246 120 193 246 120 193 246 120 193 246 120 193 246 120 193 246 120 193 246 120 193 246 120 193 246 120 193 246 120 193 246 120 193 246 120 193 246 120 193 246 120 193 246 120 193 246 120 193 246 120 193 246 120 193 246 120 193 246 120 193 246 120 193 246 120 193 246 120 193 246 120 193 246 120 193 246 120 193 246 120 193 246 120 193 246 120 193 246 120 193 246 120 193 246 120 193 246 120 193 246 120 193 246 120 193 246 120 193 246 120 193 246 120 193 246 120 193 246 120 193 246 120 193 246 120 193 246 120 193 246 120 193 246 120 193 246 120 193 246 120 193 246 120 193 246 120 193 246 120 193 246 120 193 246 120 193 246 120 193 246 120 193 246 120 193 246 120 193 246 120 193 246 120 193 246 120 193 246 120 193 246 120 193 246 120 193 246 120 193 246 120 193 246 120 193 246 120 193 246 120 193 246 120 193 246 120 193 246 120 193 246 120 193 246 120 193 246 120 193 246 120 193 246 120 193 246 120 193 246 120 193 246 120 193 246 120 193 246 120 193 246 120 193 246 120 193 246 120 193 246 120 193 246 120 193 246 120 193 246 120 193 246 120 193 246 120 193 246 120 193 246 120 193 246 120 193 246 120 193 246 120 193 246 120 193 246 120 193 246 120 193 246 120 193 246 120 193 246 120 193 246 120 193 246 120 193 246 120 193 246 120 193 246 120 193 246 120 193 246 120 193 246 120 193 246 120 193 246 120 193 246 120 193 246 120 193 246 120 193 246 120 193 246 120 193 246 120 193 246 120 193 246 120 193 246 120 193 246 120 193 246 120 193 246 120 193 246 120 193 246 120 193 246 120 193 246 120 193 246 120 193 246 120 193 246 120 193 246 120 193 246 120 193 246 120 193 246 120 193 246 120 193 246 120 193 246 120 193 246 120 193 246 120 193 246 120 193 246 120 193 246 120 193 246 120 193 246 120 193 246 120 193 246 120 193 246 120 193 246 120 193 246 120 193 246 120 193 246 120 193 246 120 193 246 120 193 246 120 193 246 120 193 246 120 193 246 120 193 246 120 193 246 120 193 246 120 193 246 120 193 246 120 193 246 120 193 246 120 193 246 120 193 246 120 193 246 120 193 246 120 193 246 120 193 246 120 193 246 120 193 246 120 193 246 120 193 246 120 193 246 120 193 246 120 193 246 120 193 246 120 193 246 120 193 246 120 193 246 120 193 246 120 193 246 120 193 246 120 193 246 120 193 246 120 193 246 120 193 246 120 193 246 120 193 246 120 193 246 120 193 246 120 193 246 120 193 246 120 193 246 120 193 246 120 193 246 120 193 246 120 193 246 120 193 246 120 193 246 120 193 246 120 193 246 120 193 246 120 193 246 120 193 246 120 193 246 120 193 246 120 193 246 120 193 246 120 193 246 120 193 246 120 193 246 120 193 246 120 193 246 120 193 246 120 193 246 120 193 246 120 193 246 120 193 246 120 193 246 120 193 246 120 193 246 120 193 246 120 193 246 120 193 246 120 193 246 120 193 246 120 193 246 120 193 246 120 193 246 120 193 246 120 193 246 120 193 246 120 193 246 120 193 246 120 193 246 120 193 246 120 193 246 120 193 246 120 193 246 120 193 246 120 193 246 120 193 246 120 193 246 120 193 246 120 193 246 120 193 246 120 193 246 120 193 246 120 193 246 120 193 246 120 193 246 120 193 246 120 193 246 120 193 246 120 193 246 120 193 246 120 193 246 120 193 246 120 193 246 120 193 246 120 193 246 120 193 246 120 193 246 120 193 246 120 193 246 120 193 246 120 193 246 120 193 246 120 193 246 120 193 246 120 193 246 120 193 246 120 193 246 120 193 246 120 193 246 120 193 246 120 193 246 120 193 246 120 193 246 120 193 246 120 193 246 120 193 246 120 193 246 120 193 246 120 193 246 120 193 246 120 193 246 120 193 246 120 193 246 120 193 246 120 193 246 120 193 246 120 193 246 120 193 246 120 193 246 120 193 246 120 193 246 120 193 246 120 193 246 120 193 246 120 193 246 120 193 246 120 193 246 120 193 246 120 193 246 120 193 246 120 193 246 120 193 246 120 193 246 120 193 246 120 193 246 120 193 246 120 193 246 120 193 246 120 193 246 120 193 246 120 193 246 120 193 246 120 193 246 120 193 246 120 193 246 120 193 246 120 193 246 120 193 246 120 193 246 120 193 246 120 193 246 120 193 246 120 193 246 120 193 246 120 193 246 120 193 246 120 193 246 120 193 246 120 193 246 120 193 246 120 193 246 120 193 246 120 193 246 120 193 246 120 193 246 120 193 246 120 193 246 120 193 246 120 193 246 120 193 246 120 193 246 120 193 246 120 193 246 120 193 246 120 193 246 120 193 246 120 193 246 120 193 246 120 193 246 120 193 246 120 193 246 120 193 246 120 193 246 120 193 246 120 193 246 205 9 13 205 9 13 205 9 13 120 193 246 120 193 246 120 193 246 120 193 246 120 193 246 120 193 246 120 193 246 120 193 246 120 193 246 120 193 246 120 193 246 120 193 246 120 193 246 120 193 246 120 193 246 120 193 246 120 193 246 120 193 246 120 193 246 120 193 246 120 193 246 120 193 246 120 193 246 120 193 246 120 193 246 120 193 246 120 193 246 120 193 246 120 193 246 120 193 246 120 193 246 120 193 246 120 193 246 120 193 246 120 193 246 120 193 246 120 193 246 120 193 246 120 193 246 120 193 246 120 193 246 120 193 246 120 193 246 120 193 246 120 193 246 120 193 246 120 193 246 120 193 246 120 193 246 120 193 246 120 193 246 120 193 246 120 193 246 120 193 246 120 193 246 120 193 246 120 193 246 120 193 246 120 193 246 120 193 246 120 193 246 205 9 13 205 9 13 205 9 13 120 193 246 120 193 246 120 193 246 120 193 246 120 193 246 120 193 246 120 193 246 120 193 246 120 193 246 120 193 246 120 193 246 120 193 246 120 193 246 120 193 246 120 193 246 120 193 246 120 193 246 120 193 246 120 193 246 120 193 246 120 193 246 120 193 246 120 193 246 120 193 246 120 193 246 120 193 246 120 193 246 120 193 246 120 193 246 120 193 246 120 193 246 120 193 246 120 193 246 120 193 246 120 193 246 120 193 246 120 193 246 120 193 246 120 193 246 120 193 246 120 193 246 120 193 246 120 193 246 120 193 246 120 193 246 120 193 246 120 193 246 120 193 246 120 193 246 120 193 246 120 193 246 120 193 246 120 193 246 120 193 246 120 193 246 120 193 246 120 193 246 120 193 246 120 193 246 120 193 246 120 193 246 205 9 13 205 9 13 205 9 13 120 193 246 120 193 246 120 193 246 120 193 246 120 193 246 120 193 246 120 193 246 120 193 246 120 193 246 120 193 246 120 193 246 120 193 246 120 193 246 120 193 246 120 193 246 120 193 246 120 193 246 120 193 246 120 193 246 120 193 246 120 193 246 120 193 246 120 193 246 120 193 246 120 193 246 120 193 246 120 193 246 120 193 246 120 193 246 120 193 246 120 193 246 120 193 246 120 193 246 120 193 246 120 193 246 120 193 246 120 193 246 120 193 246 120 193 246 120 193 246 120 193 246 120 193 246 120 193 246 120 193 246 120 193 246 120 193 246 120 193 246 120 193 246 120 193 246 120 193 246 120 193 246 120 193 246 120 193 246 120 193 246 120 193 246 120 193 246 120 193 246 120 193 246 120 193 246 120 193 246 120 193 246 205 9 13 205 9 13 205 9 13 120 193 246 120 193 246 120 193 246 120 193 246 120 193 246 120 193 246 120 193 246 120 193 246 120 193 246 120 193 246 120 193 246 120 193 246 120 193 246 120 193 246 120 193 246 120 193 246 120 193 246 120 193 246 120 193 246 120 193 246 120 193 246 120 193 246 120 193 246 120 193 246 120 193 246 120 193 246 120 193 246 120 193 246 120 193 246 120 193 246 120 193 246 120 193 246 120 193 246 120 193 246 120 193 246 120 193 246 120 193 246 120 193 246 120 193 246 120 193 246 120 193 246 120 193 246 120 193 246 120 193 246 120 193 246 120 193 246 120 193 246 120 193 246 120 193 246 120 193 246 120 193 246 120 193 246 120 193 246 120 193 246 120 193 246 120 193 246 120 193 246 120 193 246 120 193 246 120 193 246 120 193 246 205 9 13 205 9 13 205 9 13 120 193 246 120 193 246 120 193 246 120 193 246 120 193 246 120 193 246 120 193 246 120 193 246 120 193 246 120 193 246 120 193 246 120 193 246 120 193 246 120 193 246 120 193 246 120 193 246 120 193 246 120 193 246 120 193 246 120 193 246 120 193 246 120 193 246 120 193 246 120 193 246 120 193 246 120 193 246 120 193 246 120 193 246 120 193 246 120 193 246 120 193 246 120 193 246 120 193 246 120 193 246 120 193 246 120 193 246 120 193 246 120 193 246 120 193 246 120 193 246 120 193 246 120 193 246 120 193 246 120 193 246 120 193 246 120 193 246 120 193 246 120 193 246 120 193 246 120 193 246 120 193 246 120 193 246 120 193 246 120 193 246 120 193 246 120 193 246 120 193 246 120 193 246 120 193 246 120 193 246 120 193 246 205 9 13 205 9 13 205 9 13 120 193 246 120 193 246 120 193 246 120 193 246 120 193 246 120 193 246 120 193 246 120 193 246 120 193 246 120 193 246 120 193 246 120 193 246 120 193 246 120 193 246 120 193 246 120 193 246 120 193 246 120 193 246 120 193 246 120 193 246 120 193 246 120 193 246 120 193 246 120 193 246 120 193 246 120 193 246 120 193 246 120 193 246 120 193 246 120 193 246 120 193 246 120 193 246 120 193 246 120 193 246 120 193 246 120 193 246 120 193 246 120 193 246 120 193 246 120 193 246 120 193 246 120 193 246 120 193 246 120 193 246 120 193 246 120 193 246 120 193 246 120 193 246 120 193 246 120 193 246 120 193 246 120 193 246 120 193 246 120 193 246 120 193 246 120 193 246 120 193 246 120 193 246 120 193 246 120 193 246 120 193 246 120 193 246 120 193 246 120 193 246 120 193 246 120 193 246 120 193 246 120 193 246 120 193 246 120 193 246 120 193 246 120 193 246 120 193 246 120 193 246 120 193 246 120 193 246 120 193 246 120 193 246 120 193 246 120 193 246 120 193 246 120 193 246 120 193 246 120 193 246 120 193 246 120 193 246 120 193 246 120 193 246 120 193 246 120 193 246 120 193 246 120 193 246 120 193 246 120 193 246 120 193 246 120 193 246 120 193 246 120 193 246 120 193 246 120 193 246 120 193 246 120 193 246 120 193 246 120 193 246 120 193 246 120 193 246 120 193 246 120 193 246 120 193 246 120 193 246 120 193 246 120 193 246 120 193 246 120 193 246 120 193 246 120 193 246 120 193 246 120 193 246 120 193 246 120 193 246 120 193 246 120 193 246 120 193 246 120 193 246 120 193 246 120 193 246 120 193 246 120 193 246 120 193 246 120 193 246 120 193 246 120 193 246 120 193 246 120 193 246 120 193 246 120 193 246 120 193 246 205 9 13 205 9 13 205 9 13 205 9 13 205 9 13 205 9 13 120 193 246 120 193 246 120 193 246 120 193 246 120 193 246 120 193 246 120 193 246 120 193 246 120 193 246 120 193 246 120 193 246 120 193 246 120 193 246 120 193 246 120 193 246 120 193 246 120 193 246 120 193 246 120 193 246 120 193 246 120 193 246 120 193 246 120 193 246 120 193 246 120 193 246 120 193 246 120 193 246 120 193 246 120 193 246 120 193 246 120 193 246 120 193 246 120 193 246 120 193 246 120 193 246 120 193 246 120 193 246 120 193 246 120 193 246 120 193 246 120 193 246 120 193 246 120 193 246 120 193 246 120 193 246 120 193 246 120 193 246 120 193 246 120 193 246 120 193 246 120 193 246 120 193 246 120 193 246 120 193 246 120 193 246 120 193 246 120 193 246 120 193 246 205 9 13 205 9 13 205 9 13 205 9 13 205 9 13 205 9 13 120 193 246 120 193 246 120 193 246 120 193 246 120 193 246 120 193 246 120 193 246 120 193 246 120 193 246 120 193 246 120 193 246 120 193 246 120 193 246 120 193 246 120 193 246 120 193 246 120 193 246 120 193 246 120 193 246 120 193 246 120 193 246 120 193 246 120 193 246 120 193 246 120 193 246 120 193 246 120 193 246 120 193 246 120 193 246 120 193 246 120 193 246 120 193 246 120 193 246 120 193 246 120 193 246 120 193 246 120 193 246 120 193 246 120 193 246 120 193 246 120 193 246 120 193 246 120 193 246 120 193 246 120 193 246 120 193 246 120 193 246 120 193 246 120 193 246 120 193 246 242 248 22 242 248 22 242 248 22 242 248 22 242 248 22 242 248 22 242 248 22 242 248 22 242 248 22 242 248 22 242 248 22 205 9 13 205 9 13 205 9 13 120 193 246 120 193 246 120 193 246 120 193 246 120 193 246 120 193 246 120 193 246 120 193 246 120 193 246 120 193 246 120 193 246 120 193 246 120 193 246 120 193 246 120 193 246 120 193 246 120 193 246 120 193 246 120 193 246 120 193 246 120 193 246 120 193 246 120 193 246 120 193 246 120 193 246 120 193 246 120 193 246 120 193 246 120 193 246 120 193 246 120 193 246 120 193 246 120 193 246 120 193 246 120 193 246 120 193 246 120 193 246 120 193 246 120 193 246 120 193 246 120 193 246 120 193 246 120 193 246 120 193 246 120 193 246 120 193 246 120 193 246 120 193 246 120 193 246 120 193 246 242 248 22 242 248 22 242 248 22 242 248 22 242 248 22 242 248 22 242 248 22 242 248 22 242 248 22 242 248 22 242 248 22 205 9 13 205 9 13 205 9 13 120 193 246 120 193 246 120 193 246 120 193 246 120 193 246 120 193 246 120 193 246 120 193 246 120 193 246 120 193 246 120 193 246 120 193 246 120 193 246 120 193 246 120 193 246 120 193 246 120 193 246 120 193 246 120 193 246 120 193 246 120 193 246 120 193 246 120 193 246 120 193 246 120 193 246 120 193 246 120 193 246 120 193 246 120 193 246 120 193 246 120 193 246 120 193 246 120 193 246 120 193 246 120 193 246 120 193 246 120 193 246 120 193 246 120 193 246 120 193 246 120 193 246 120 193 246 120 193 246 120 193 246 120 193 246 120 193 246 120 193 246 120 193 246 120 193 246 120 193 246 242 248 22 242 248 22 242 248 22 242 248 22 242 248 22 242 248 22 242 248 22 242 248 22 242 248 22 242 248 22 242 248 22 205 9 13 205 9 13 205 9 13 120 193 246 120 193 246 120 193 246 120 193 246 120 193 246 120 193 246 120 193 246 120 193 246 120 193 246 120 193 246 120 193 246 120 193 246 120 193 246 120 193 246 120 193 246 120 193 246 120 193 246 120 193 246 120 193 246 120 193 246 120 193 246 120 193 246 120 193 246 120 193 246 120 193 246 120 193 246 120 193 246 120 193 246 120 193 246 120 193 246 120 193 246 120 193 246 120 193 246 120 193 246 120 193 246 120 193 246 120 193 246 120 193 246 120 193 246 120 193 246 120 193 246 120 193 246 120 193 246 120 193 246 120 193 246 120 193 246 120 193 246 120 193 246 120 193 246 120 193 246 242 248 22 242 248 22 242 248 22 242 248 22 242 248 22 242 248 22 242 248 22 242 248 22 242 248 22 242 248 22 242 248 22 205 9 13 205 9 13 205 9 13 120 193 246 120 193 246 120 193 246 120 193 246 120 193 246 120 193 246 120 193 246 120 193 246 120 193 246 120 193 246 120 193 246 120 193 246 120 193 246 120 193 246 120 193 246 120 193 246 120 193 246 120 193 246 120 193 246 120 193 246 120 193 246 120 193 246 242 248 22 120 193 246 120 193 246 120 193 246 120 193 246 120 193 246 120 193 246 120 193 246 120 193 246 120 193 246 120 193 246 120 193 246 120 193 246 120 193 246 120 193 246 120 193 246 120 193 246 120 193 246 120 193 246 120 193 246 120 193 246 120 193 246 120 193 246 120 193 246 120 193 246 120 193 246 120 193 246 120 193 246 242 248 22 242 248 22 242 248 22 242 248 22 242 248 22 242 248 22 242 248 22 242 248 22 242 248 22 242 248 22 242 248 22 205 9 13 205 9 13 205 9 13 120 193 246 120 193 246 120 193 246 120 193 246 120 193 246 120 193 246 120 193 246 120 193 246 120 193 246 120 193 246 120 193 246 120 193 246 120 193 246 120 193 246 120 193 246 120 193 246 120 193 246 120 193 246 120 193 246 120 193 246 120 193 246 120 193 246 120 193 246 120 193 246 120 193 246 120 193 246 120 193 246 120 193 246 120 193 246 120 193 246 120 193 246 120 193 246 120 193 246 120 193 246 120 193 246 120 193 246 120 193 246 120 193 246 120 193 246 120 193 246 120 193 246 120 193 246 120 193 246 120 193 246 120 193 246 120 193 246 120 193 246 120 193 246 120 193 246 120 193 246 242 248 22 242 248 22 242 248 22 242 248 22 242 248 22 242 248 22 242 248 22 242 248 22 242 248 22 242 248 22 242 248 22 205 9 13 205 9 13 205 9 13 120 193 246 120 193 246 120 193 246 120 193 246 120 193 246 120 193 246 120 193 246 120 193 246 120 193 246 120 193 246 120 193 246 120 193 246 120 193 246 120 193 246 120 193 246 120 193 246 120 193 246 120 193 246 120 193 246 120 193 246 120 193 246 120 193 246 120 193 246 120 193 246 120 193 246 120 193 246 120 193 246 120 193 246 120 193 246 120 193 246 120 193 246 120 193 246 120 193 246 120 193 246 120 193 246 120 193 246 120 193 246 120 193 246 120 193 246 120 193 246 120 193 246 120 193 246 120 193 246 120 193 246 120 193 246 120 193 246 120 193 246 120 193 246 120 193 246 120 193 246 242 248 22 242 248 22 242 248 22 242 248 22 242 248 22 242 248 22 242 248 22 242 248 22 242 248 22 242 248 22 242 248 22 205 9 13 205 9 13 205 9 13 120 193 246 120 193 246 242 248 22 242 248 22 242 248 22 242 248 22 242 248 22 242 248 22 242 248 22 242 248 22 242 248 22 120 193 246 120 193 246 120 193 246 120 193 246 120 193 246 120 193 246 120 193 246 120 193 246 120 193 246 120 193 246 120 193 246 120 193 246 120 193 246 120 193 246 120 193 246 120 193 246 120 193 246 120 193 246 120 193 246 120 193 246 120 193 246 120 193 246 120 193 246 120 193 246 120 193 246 120 193 246 120 193 246 120 193 246 120 193 246 120 193 246 120 193 246 120 193 246 120 193 246 120 193 246 120 193 246 120 193 246 120 193 246 120 193 246 120 193 246 242 248 22 242 248 22 242 248 22 242 248 22 242 248 22 242 248 22 242 248 22 242 248 22 242 248 22 242 248 22 242 248 22 205 9 13 205 9 13 205 9 13 120 193 246 120 193 246 242 248 22 242 248 22 242 248 22 242 248 22 242 248 22 242 248 22 242 248 22 242 248 22 242 248 22 120 193 246 120 193 246 120 193 246 120 193 246 120 193 246 120 193 246 120 193 246 120 193 246 120 193 246 120 193 246 120 193 246 120 193 246 120 193 246 120 193 246 120 193 246 120 193 246 120 193 246 120 193 246 120 193 246 120 193 246 120 193 246 120 193 246 120 193 246 120 193 246 120 193 246 120 193 246 120 193 246 120 193 246 120 193 246 120 193 246 120 193 246 120 193 246 120 193 246 120 193 246 120 193 246 120 193 246 120 193 246 120 193 246 120 193 246 242 248 22 242 248 22 242 248 22 242 248 22 242 248 22 242 248 22 242 248 22 242 248 22 242 248 22 242 248 22 242 248 22 120 193 246 120 193 246 120 193 246 120 193 246 120 193 246 242 248 22 242 248 22 242 248 22 242 248 22 242 248 22 242 248 22 242 248 22 242 248 22 242 248 22 120 193 246 120 193 246 120 193 246 120 193 246 120 193 246 120 193 246 120 193 246 120 193 246 120 193 246 120 193 246 120 193 246 120 193 246 120 193 246 120 193 246 120 193 246 120 193 246 120 193 246 120 193 246 120 193 246 120 193 246 120 193 246 120 193 246 120 193 246 120 193 246 120 193 246 120 193 246 120 193 246 120 193 246 120 193 246 120 193 246 120 193 246 120 193 246 120 193 246 120 193 246 120 193 246 120 193 246 120 193 246 120 193 246 120 193 246 242 248 22 242 248 22 242 248 22 242 248 22 242 248 22 242 248 22 242 248 22 242 248 22 242 248 22 242 248 22 242 248 22 120 193 246 120 193 246 120 193 246 120 193 246 120 193 246 242 248 22 242 248 22 242 248 22 242 248 22 242 248 22 242 248 22 242 248 22 242 248 22 242 248 22 120 193 246 120 193 246 120 193 246 120 193 246 120 193 246 120 193 246 120 193 246 120 193 246 120 193 246 120 193 246 120 193 246 120 193 246 120 193 246 120 193 246 120 193 246 120 193 246 120 193 246 120 193 246 120 193 246 120 193 246 120 193 246 120 193 246 120 193 246 120 193 246 120 193 246 120 193 246 120 193 246 120 193 246 120 193 246 120 193 246 120 193 246 120 193 246 120 193 246 120 193 246 120 193 246 120 193 246 120 193 246 120 193 246 120 193 246 242 248 22 242 248 22 242 248 22 242 248 22 242 248 22 242 248 22 242 248 22 242 248 22 242 248 22 242 248 22 242 248 22 120 193 246 120 193 246 120 193 246 120 193 246 120 193 246 242 248 22 242 248 22 242 248 22 242 248 22 242 248 22 242 248 22 242 248 22 242 248 22 242 248 22 120 193 246 120 193 246 120 193 246 120 193 246 120 193 246 120 193 246 120 193 246 120 193 246 120 193 246 120 193 246 120 193 246 120 193 246 120 193 246 120 193 246 120 193 246 120 193 246 120 193 246 120 193 246 120 193 246 120 193 246 120 193 246 120 193 246 120 193 246 120 193 246 120 193 246 120 193 246 120 193 246 120 193 246 120 193 246 120 193 246 120 193 246 120 193 246 120 193 246 120 193 246 120 193 246 120 193 246 120 193 246 120 193 246 120 193 246 120 193 246 120 193 246 120 193 246 120 193 246 120 193 246 120 193 246 120 193 246 120 193 246 120 193 246 120 193 246 120 193 246 120 193 246 120 193 246 120 193 246 120 193 246 120 193 246 242 248 22 242 248 22 242 248 22 242 248 22 242 248 22 242 248 22 242 248 22 242 248 22 242 248 22 120 193 246 120 193 246 120 193 246 120 193 246 120 193 246 120 193 246 120 193 246 120 193 246 120 193 246 120 193 246 120 193 246 120 193 246 120 193 246 120 193 246 120 193 246 120 193 246 120 193 246 120 193 246 120 193 246 120 193 246 120 193 246 120 193 246 120 193 246 120 193 246 120 193 246 120 193 246 120 193 246 120 193 246 120 193 246 120 193 246 120 193 246 120 193 246 120 193 246 120 193 246 120 193 246 120 193 246 120 193 246 120 193 246 120 193 246 120 193 246 120 193 246 120 193 246 120 193 246 120 193 246 120 193 246 120 193 246 120 193 246 120 193 246 120 193 246 120 193 246 120 193 246 120 193 246 120 193 246 120 193 246 120 193 246 242 248 22 242 248 22 242 248 22 242 248 22 242 248 22 242 248 22 242 248 22 242 248 22 242 248 22 120 193 246 120 193 246 120 193 246 120 193 246 120 193 246 120 193 246 120 193 246 120 193 246 120 193 246 120 193 246 120 193 246 120 193 246 120 193 246 120 193 246 120 193 246 120 193 246 120 193 246 120 193 246 120 193 246 120 193 246 120 193 246 120 193 246 120 193 246 120 193 246 120 193 246 120 193 246 120 193 246 120 193 246 120 193 246 120 193 246 120 193 246 120 193 246 120 193 246 120 193 246 120 193 246 120 193 246 120 193 246 120 193 246 120 193 246 120 193 246 120 193 246 120 193 246 120 193 246 120 193 246 120 193 246 120 193 246 120 193 246 120 193 246 120 193 246 120 193 246 120 193 246 120 193 246 120 193 246 120 193 246 120 193 246 242 248 22 242 248 22 242 248 22 242 248 22 242 248 22 242 248 22 242 248 22 242 248 22 242 248 22 120 193 246 120 193 246 120 193 246 120 193 246 120 193 246 120 193 246 120 193 246 120 193 246 120 193 246 120 193 246 120 193 246 120 193 246 120 193 246 120 193 246 120 193 246 120 193 246 120 193 246 120 193 246 120 193 246 120 193 246 120 193 246 120 193 246 120 193 246 120 193 246 120 193 246 120 193 246 120 193 246 120 193 246 120 193 246 120 193 246 120 193 246 120 193 246 120 193 246 120 193 246 120 193 246 120 193 246 120 193 246 120 193 246 120 193 246 120 193 246 120 193 246 120 193 246 120 193 246 120 193 246 120 193 246 120 193 246 120 193 246 120 193 246 120 193 246 120 193 246 120 193 246 120 193 246 120 193 246 120 193 246 120 193 246 242 248 22 242 248 22 242 248 22 242 248 22 242 248 22 242 248 22 242 248 22 242 248 22 242 248 22 120 193 246 120 193 246 120 193 246 120 193 246 120 193 246 120 193 246 120 193 246 120 193 246 120 193 246 120 193 246 120 193 246 120 193 246 120 193 246 120 193 246 120 193 246 120 193 246 120 193 246 120 193 246 120 193 246 120 193 246 120 193 246 120 193 246 120 193 246 120 193 246 120 193 246 120 193 246 120 193 246 120 193 246 120 193 246 120 193 246 120 193 246 120 193 246 120 193 246 120 193 246 120 193 246 120 193 246 120 193 246 120 193 246 120 193 246 120 193 246 120 193 246 120 193 246 120 193 246 120 193 246 120 193 246 120 193 246 120 193 246 120 193 246 120 193 246 120 193 246 120 193 246 120 193 246 120 193 246 120 193 246 120 193 246 242 248 22 242 248 22 242 248 22 242 248 22 242 248 22 242 248 22 242 248 22 242 248 22 242 248 22 120 193 246 120 193 246 120 193 246 120 193 246 120 193 246 120 193 246 120 193 246 120 193 246 120 193 246 120 193 246 120 193 246 120 193 246 120 193 246 120 193 246 120 193 246 120 193 246 120 193 246 120 193 246 120 193 246 120 193 246 120 193 246 120 193 246 120 193 246 120 193 246 120 193 246 120 193 246 120 193 246 120 193 246 120 193 246 120 193 246 120 193 246 120 193 246 120 193 246 120 193 246 120 193 246 120 193 246 120 193 246 120 193 246 120 193 246 120 193 246 120 193 246 120 193 246 120 193 246 120 193 246 120 193 246 120 193 246 120 193 246 120 193 246 120 193 246 120 193 246 120 193 246 120 193 246 120 193 246 120 193 246 120 193 246 242 248 22 242 248 22 242 248 22 242 248 22 242 248 22 242 248 22 242 248 22 242 248 22 242 248 22 120 193 246 120 193 246 120 193 246 120 193 246 120 193 246 120 193 246 120 193 246 120 193 246 120 193 246 120 193 246 120 193 246 120 193 246 120 193 246 120 193 246 120 193 246 120 193 246 120 193 246 120 193 246 120 193 246 120 193 246 120 193 246 120 193 246 120 193 246 120 193 246 120 193 246 120 193 246 120 193 246 120 193 246 120 193 246 120 193 246 120 193 246 120 193 246 120 193 246 120 193 246 120 193 246 120 193 246 120 193 246 120 193 246 120 193 246 120 193 246 120 193 246 120 193 246 120 193 246 120 193 246 120 193 246 120 193 246 120 193 246 120 193 246 120 193 246 120 193 246 120 193 246 120 193 246 120 193 246 120 193 246 120 193 246 242 248 22 242 248 22 242 248 22 242 248 22 242 248 22 242 248 22 242 248 22 242 248 22 242 248 22 120 193 246 120 193 246 120 193 246 120 193 246 120 193 246 120 193 246 120 193 246 120 193 246 120 193 246 120 193 246 120 193 246 120 193 246 120 193 246 120 193 246 120 193 246 120 193 246 120 193 246 120 193 246 120 193 246 120 193 246 120 193 246 120 193 246 120 193 246 120 193 246 120 193 246 120 193 246 120 193 246 120 193 246 120 193 246 